<svg width="1134" height="966" viewBox="0 0 1134 966" fill="none" xmlns="http://www.w3.org/2000/svg">
<path d="M714.021 144H427.062L227 342.633V628.421L427.062 823H714.021L906 628.421V342.633L714.021 144Z" stroke="url(#paint0_linear_123_3)" stroke-width="69" stroke-linejoin="round"/>
<path d="M449.053 606.134V328.504C449.053 311.85 443.368 301.063 432 296.142C442.989 281.381 457.579 274 475.768 274C507.221 274 522.947 292.736 522.947 330.207V598.186C522.947 612.19 525.789 622.41 531.474 628.844C537.537 634.9 547.011 637.928 559.895 637.928H632.084C656.716 637.928 675.095 630.358 687.221 615.218C697.074 620.139 702 629.601 702 643.606C702 657.232 696.316 668.965 684.947 678.806C673.579 688.269 656.905 693 634.926 693H545.684C510.821 693 486 686.565 471.221 673.696C456.442 660.827 449.053 638.307 449.053 606.134Z" fill="#DB2777"/>
<path d="M421.973 288.678L412.545 301.342L427.035 307.614C430.149 308.962 432.24 310.921 433.731 313.75C435.344 316.812 436.553 321.501 436.553 328.504V606.134C436.553 639.665 444.173 666.719 463.012 683.123C481.272 699.023 509.921 705.5 545.684 705.5H634.926C658.455 705.5 678.463 700.467 692.944 688.414L693.037 688.336L693.128 688.257C706.921 676.318 714.5 661.261 714.5 643.606C714.5 626.396 708.112 611.679 692.806 604.035L683.775 599.525L677.465 607.404C668.33 618.808 654.037 625.428 632.084 625.428H559.895C549.044 625.428 543.447 622.936 540.588 620.271C537.952 617.07 535.447 610.55 535.447 598.186V330.207C535.447 310.027 531.258 292.562 520.727 280.016C509.844 267.05 494.052 261.5 475.768 261.5C453.574 261.5 435.289 270.792 421.973 288.678Z" stroke="#DC49A5" stroke-opacity="0.1" stroke-width="25"/>
<defs>
<linearGradient id="paint0_linear_123_3" x1="176.479" y1="879.752" x2="1375.5" y2="-49.143" gradientUnits="userSpaceOnUse">
<stop stop-color="#EC4899"/>
<stop offset="1" stop-color="#7348EC"/>
</linearGradient>
</defs>
</svg>
